<svg xmlns="http://www.w3.org/2000/svg" viewBox="0 0 300 300"><path d="M82.69,163.45c.08-.05.15-.08.21-.12-.04.13-.07.26-.1.39C82.77,163.63,82.73,163.54,82.69,163.45Z" fill="#00bb84"/><path d="M83.6,160.87c.11-.38.23-.77.36-1.18C83.84,160.11,83.71,160.51,83.6,160.87Z" fill="#00bb84"/><path d="M91.84,140.97c-2.88,5.79-4.85,10.36-6.25,14.03A116.685,116.685,0,0,1,91.84,140.97Z" fill="#00bb84"/><path d="M155.49,100.97c-.37-.03-.74-.06-1.11-.08.18,0,.36.01.54.02a.17.17,0,0,0,.07.01C155.16,100.94,155.32,100.95,155.49,100.97Z" fill="#00bb84"/><path d="M187.72,113.34a68.234,68.234,0,0,0-30.84-12.22A64.143,64.143,0,0,1,187.72,113.34Z" fill="#00bb84"/><path d="M203.75,128.32a91.416,91.416,0,0,0-15.83-14.84A76.218,76.218,0,0,1,203.75,128.32Z" fill="#00bb84"/><path d="M219.46,152.14a158.2,158.2,0,0,0-15.58-23.65.209.209,0,0,1-.04-.06A123.81,123.81,0,0,1,219.46,152.14Z" fill="#00bb84"/><path d="M223.94,162.05c-.99-2.52-2.26-5.45-3.84-8.64A82.342,82.342,0,0,1,223.94,162.05Z" fill="#00bb84"/><path d="M224.24,162.85a.035.035,0,0,0-.01.02c-.07-.22-.15-.44-.24-.67C224.08,162.42,224.16,162.64,224.24,162.85Z" fill="#00bb84"/><path d="M254.75,162.24c-.45.4-.84.76-1.16,1.08a19.152,19.152,0,0,0-16.04-6.97c-2.68-11.6-6.06-24.1-9.57-31.93-6.35-14.18-19.25-27.88-34.51-36.63-11.02-6.31-27.71-13.64-44.73-12.71a90.949,90.949,0,0,0-44.9,14.14c-23.43,15.06-35.17,52.21-38.94,66.46a14.619,14.619,0,0,0-7.17,4.78c-1.34-3.71-4.08-9.85-8.49-13.42,2.4-24.69,7.56-34.98,13.01-45.82,1.13-2.24,2.3-4.56,3.45-7.03,4.21-9.02,13.09-18.99,23.76-26.66,14.5-10.42,32.44-16.95,51.88-18.89,6.18-.61,11.78-.98,17.02-.98,21.33,0,36.73,6.04,60.96,25.9,15.6,12.77,24.54,37.49,29.3,55.98A263.843,263.843,0,0,1,254.75,162.24Z" fill="#00bb84"/><path d="M82.69,163.45c.04.09.08.18.11.27.03-.13.06-.26.1-.39C82.84,163.37,82.77,163.4,82.69,163.45Zm3.71-1.47c.49-1.59,1.22-3.82,2.22-6.49C87.63,158.05,86.93,160.18,86.4,161.98ZM85.59,155c1.4-3.67,3.37-8.24,6.25-14.03A116.685,116.685,0,0,0,85.59,155Zm8.93-12.69-.27.54a103.046,103.046,0,0,1,5.38-9.2c9.02-13.66,19.86-22.67,32.38-26.98C119.43,110.9,105.26,120.74,94.52,142.31Zm48.93-38.19c-.33.04-.67.08-1,.13.66-.09,1.32-.17,1.99-.24C144.11,104.04,143.79,104.07,143.45,104.12Zm.99-.11c1.96-.18,3.94-.27,5.96-.27A52.52,52.52,0,0,0,144.44,104.01Zm12.44-2.89a68.234,68.234,0,0,1,30.84,12.22A64.143,64.143,0,0,0,156.88,101.12Zm44.63,29.22a72.9,72.9,0,0,0-16.54-15.25,88.2,88.2,0,0,1,17.42,16.4C202.11,131.11,201.81,130.73,201.51,130.34Zm2.33-1.91a.209.209,0,0,0,.04.06,158.2,158.2,0,0,1,15.58,23.65A123.81,123.81,0,0,0,203.84,128.43ZM214.85,150a121.674,121.674,0,0,1,6.07,12.64A93.084,93.084,0,0,0,214.85,150Zm9.14,12.2c.09.23.17.45.24.67a.035.035,0,0,1,.01-.02C224.16,162.64,224.08,162.42,223.99,162.2Zm-.95,1.84.06.18c0-.01,0-.01.01-.01A1.22,1.22,0,0,0,223.04,164.04Z" fill="#2c2c2c"/><path d="M83.55,166.4c-.01.04-.02.07-.03.1a.145.145,0,0,0-.02-.07C83.52,166.42,83.53,166.41,83.55,166.4Z" fill="#f6912e"/><path d="M82.69,163.45c.08-.05.15-.08.21-.12-.04.13-.07.26-.1.39C82.77,163.63,82.73,163.54,82.69,163.45Z" fill="#f6912e"/><path d="M83.6,160.87c.11-.38.23-.77.36-1.18C83.84,160.11,83.71,160.51,83.6,160.87Z" fill="#f6912e"/><path d="M91.84,140.97c-2.88,5.79-4.85,10.36-6.25,14.03A116.685,116.685,0,0,1,91.84,140.97Z" fill="#f6912e"/><path d="M155.49,100.97c-.37-.03-.74-.06-1.11-.08.18,0,.36.01.54.02a.17.17,0,0,0,.07.01C155.16,100.94,155.32,100.95,155.49,100.97Z" fill="#f6912e"/><path d="M187.72,113.34a68.234,68.234,0,0,0-30.84-12.22A64.143,64.143,0,0,1,187.72,113.34Z" fill="#f6912e"/><path d="M203.75,128.32a91.416,91.416,0,0,0-15.83-14.84A76.218,76.218,0,0,1,203.75,128.32Z" fill="#f6912e"/><path d="M219.46,152.14a158.2,158.2,0,0,0-15.58-23.65.209.209,0,0,1-.04-.06A123.81,123.81,0,0,1,219.46,152.14Z" fill="#f6912e"/><path d="M223.94,162.05c-.99-2.52-2.26-5.45-3.84-8.64A82.342,82.342,0,0,1,223.94,162.05Z" fill="#f6912e"/><path d="M224.24,162.85a.035.035,0,0,0-.01.02c-.07-.22-.15-.44-.24-.67C224.08,162.42,224.16,162.64,224.24,162.85Z" fill="#f6912e"/><path d="M222.07,165.63v.01a.55.55,0,0,0-.07.09,38.342,38.342,0,0,0-4.76,10.33,33.3,33.3,0,0,0-2.4-3.47c-.01-.01-.02-.02-.02-.03a165.52,165.52,0,0,0-13.28-21.15c-8.46-11.63-24.43-24.94-43.88-27.42-14.33-1.83-27.42,1.89-38.9,11.03-11.08,8.82-18,20.56-21.84,28.86-1.74,3.74-3.12,6.97-4.23,9.77-.67.16-1.34.35-2.02.55a46.535,46.535,0,0,0-7.99,3.24,30.563,30.563,0,0,0,1.09-7.7v-.01a24.221,24.221,0,0,0,1.88-5.04v-.02a.142.142,0,0,0,.02-.06c.02-.1.08-.33.18-.68q.12-.465.27-.99c.09-.31.18-.63.28-.96.53-1.8,1.23-3.93,2.22-6.49.09-.23.18-.46.28-.71a114.77,114.77,0,0,1,5.35-11.93l.27-.54c10.74-21.57,24.91-31.41,37.49-35.64.41-.14.81-.27,1.22-.4.5-.16.99-.31,1.48-.44.31-.09.61-.17.91-.25l.24-.06c.46-.12.92-.23,1.38-.34q.78-.18,1.53-.33c.51-.1,1.03-.19,1.55-.28.25-.05.5-.09.74-.12.47-.07.93-.14,1.39-.2.66-.09,1.32-.17,1.99-.24a52.52,52.52,0,0,1,5.96-.27h.32c.24-.01.48,0,.72.01.46.01.93.03,1.39.05.26.01.51.02.76.04s.5.03.74.05l.77.06c.5.05.97.1,1.42.15a60.509,60.509,0,0,1,27.64,10.44c.27.17.54.35.81.55a72.9,72.9,0,0,1,16.54,15.25c.3.39.6.77.88,1.15a1.267,1.267,0,0,1,.11.13,121.479,121.479,0,0,1,12.28,18.26c.02.04.05.08.07.12a93.084,93.084,0,0,1,6.07,12.64c.03.07.06.15.09.23C221.42,163.89,221.77,164.8,222.07,165.63Z" fill="#f6912e"/><path d="M223.11,164.21c-.01,0-.01,0-.01.01l-.06-.18A1.22,1.22,0,0,1,223.11,164.21Z" fill="#f6912e"/><path d="M223.12,170.2a.09.09,0,0,1-.01-.05c0-.01-.02-.12-.05-.32a.539.539,0,0,1,.07-.13A1.207,1.207,0,0,0,223.12,170.2Z" fill="#f6912e"/><path d="M83.55,166.4c-.01.04-.02.07-.03.1a.145.145,0,0,0-.02-.07C83.52,166.42,83.53,166.41,83.55,166.4Z" fill="#a18aba"/><path d="M223.11,164.21c-.01,0-.01,0-.01.01l-.06-.18A1.22,1.22,0,0,1,223.11,164.21Z" fill="#a18aba"/><path d="M82.69,163.45c.08-.05.15-.08.21-.12-.04.13-.07.26-.1.39C82.77,163.63,82.73,163.54,82.69,163.45Z" fill="#a18aba"/><path d="M83.6,160.87c.11-.38.23-.77.36-1.18C83.84,160.11,83.71,160.51,83.6,160.87Z" fill="#a18aba"/><path d="M91.84,140.97c-2.88,5.79-4.85,10.36-6.25,14.03A116.685,116.685,0,0,1,91.84,140.97Z" fill="#a18aba"/><path d="M155.49,100.97c-.37-.03-.74-.06-1.11-.08.18,0,.36.01.54.02a.17.17,0,0,0,.07.01C155.16,100.94,155.32,100.95,155.49,100.97Z" fill="#a18aba"/><path d="M187.72,113.34a68.234,68.234,0,0,0-30.84-12.22A64.143,64.143,0,0,1,187.72,113.34Z" fill="#a18aba"/><path d="M203.75,128.32a91.416,91.416,0,0,0-15.83-14.84A76.218,76.218,0,0,1,203.75,128.32Z" fill="#a18aba"/><path d="M219.46,152.14a158.2,158.2,0,0,0-15.58-23.65.209.209,0,0,1-.04-.06A123.81,123.81,0,0,1,219.46,152.14Z" fill="#a18aba"/><path d="M223.94,162.05c-.99-2.52-2.26-5.45-3.84-8.64A82.342,82.342,0,0,1,223.94,162.05Z" fill="#a18aba"/><path d="M224.24,162.85a.035.035,0,0,0-.01.02c-.07-.22-.15-.44-.24-.67C224.08,162.42,224.16,162.64,224.24,162.85Z" fill="#a18aba"/><path d="M83.5,166.43a.145.145,0,0,1,.02.07c.01-.03.02-.06.03-.1C83.53,166.41,83.52,166.42,83.5,166.43Zm.1-5.56c.11-.36.24-.76.36-1.18C83.83,160.1,83.71,160.49,83.6,160.87Zm2.07,3.74c.06-.22.12-.44.18-.68C85.75,164.28,85.69,164.51,85.67,164.61Zm3.23-9.83c1.27-3.23,2.99-7.14,5.35-11.93A114.77,114.77,0,0,0,88.9,154.78Zm66.09-53.86a.17.17,0,0,1-.07-.01c-.18-.01-.36-.02-.54-.02.37.02.74.05,1.11.08C155.32,100.95,155.16,100.94,154.99,100.92Zm1.53,3.18a64.555,64.555,0,0,1,27.64,10.44A60.509,60.509,0,0,0,156.52,104.1Zm31.4,9.38a91.416,91.416,0,0,1,15.83,14.84A76.218,76.218,0,0,0,187.92,113.48Zm14.58,18.14a158.633,158.633,0,0,1,12.28,18.26A121.479,121.479,0,0,0,202.5,131.62Zm17.6,21.79c1.58,3.19,2.85,6.12,3.84,8.64A82.342,82.342,0,0,0,220.1,153.41Zm3.03,16.29a.539.539,0,0,0-.07.13c.03.2.05.31.05.32a.09.09,0,0,0,.01.05A1.207,1.207,0,0,1,223.13,169.7Zm-.09-5.66.06.18c0-.01,0-.01.01-.01A1.22,1.22,0,0,0,223.04,164.04Zm-2.03-1.17c.4,1.07.73,2.02.99,2.86a.55.55,0,0,1,.07-.09v-.01C221.77,164.8,221.42,163.89,221.01,162.87Z" fill="#2c2c2c"/><path d="M292.85,165.97c-6.29-12-21.38-13.92-29.01-9.96a45.073,45.073,0,0,0-6.32,3.96c-2.34-18.43-10.82-67.86-36.3-88.73-31-25.4-47.95-28.79-80.18-25.58C94.59,50.28,69.67,78.59,62.98,92.92c-1.13,2.43-2.29,4.73-3.41,6.96C54.1,110.77,48.9,121.1,46.39,145.29c-8.9-3.75-27.63.45-34.24,10.16-7.66,11.23-8.32,29.26,3.95,38.82a13.116,13.116,0,0,0,10.24,2.84c4.32-.63,8.25-3.21,11.24-5.83-1.85,5.51-3.5,12.98-1.74,19.02,3.27,11.29,13.3,17.04,34.6,19.86a31.132,31.132,0,0,0,4,.27c14.16,0,21.48-10.59,24.32-16.09a8.108,8.108,0,0,0,2.2,2.11c2.93,1.9,7.05,2.06,12.27.47,5.96-1.83,10.34-7.8,11.42-15.59,1.39-10.04-2.78-19.8-10.64-24.86-5.05-3.26-11.13-4.44-17.82-3.49.96-2.32,2.09-4.92,3.45-7.84,18-38.79,46.3-39.62,57.64-38.17,18.5,2.35,33.74,15.08,41.84,26.2,3.6,4.95,6.56,9.47,8.99,13.56a15.4,15.4,0,0,0-2.02-.92c-4.11-1.56-8.47-1.22-12.96.99-10.31,5.07-14.32,16.18-12.11,23.57,1.62,5.47,6.22,8.41,12.42,8.02-.13.26-.26.52-.38.77-1.4,2.81-3.75,7.5-1.79,12.3,1.64,4.01,5.78,7.11,12.66,9.49,7.01,2.42,13.82-.33,19.69-7.96a47.633,47.633,0,0,0,4.55-7.31c1.37,6.13,4.67,16.08,11.83,18.48a10.3,10.3,0,0,0,3.31.54c4.79,0,10.23-3.16,16.23-9.44,4.81-5.05,5.39-14.7,5.08-21.63a14.771,14.771,0,0,0,6.45,5.33c3.33,1.26,6.93.75,10.69-1.54C295.04,189.34,299.09,177.88,292.85,165.97ZM62.25,101.22c1.13-2.24,2.3-4.56,3.45-7.03,4.21-9.02,13.09-18.99,23.76-26.66,14.5-10.42,32.44-16.95,51.88-18.89,6.18-.61,11.78-.98,17.02-.98,21.33,0,36.73,6.04,60.96,25.9,15.6,12.77,24.54,37.49,29.3,55.98a263.843,263.843,0,0,1,6.13,32.7c-.45.4-.84.76-1.16,1.08a19.152,19.152,0,0,0-16.04-6.97c-2.68-11.6-6.06-24.1-9.57-31.93-6.35-14.18-19.25-27.88-34.51-36.63-11.02-6.31-27.71-13.64-44.73-12.71a90.949,90.949,0,0,0-44.9,14.14c-23.43,15.06-35.17,52.21-38.94,66.46a14.619,14.619,0,0,0-7.17,4.78c-1.34-3.71-4.08-9.85-8.49-13.42C51.64,122.35,56.8,112.06,62.25,101.22ZM220.1,153.41c-.2-.41-.41-.84-.64-1.27a158.2,158.2,0,0,0-15.58-23.65.209.209,0,0,1-.04-.06.87.87,0,0,1-.09-.11,91.416,91.416,0,0,0-15.83-14.84,2.426,2.426,0,0,0-.2-.14,68.234,68.234,0,0,0-30.84-12.22c-.47-.06-.93-.11-1.39-.15-.37-.03-.74-.06-1.11-.08.18,0,.36.01.54.02a56.2,56.2,0,0,0-32.4,6.57,60.305,60.305,0,0,0-7.25,4.64c-11.73,8.71-19.12,20.27-23.27,28.54-.06.11-.11.21-.16.31-2.88,5.79-4.85,10.36-6.25,14.03-.1.26-.19.52-.29.78-.11.3-.22.6-.32.89-.13.36-.25.72-.37,1.06s-.22.68-.33.99-.2.63-.3.92a.169.169,0,0,0-.02.05c-.12.42-.25.82-.36,1.18-.15.49-.29.97-.41,1.42-.08.26-.15.51-.2.71l-.09.33c-.04.13-.07.26-.1.39-.03-.09-.07-.18-.11-.27-.05-.14-.1-.27-.16-.41a12.156,12.156,0,0,0-1.9-3.08,11.33,11.33,0,0,0-1.2-1.2,10.351,10.351,0,0,0-1.29-.97,13.454,13.454,0,0,0-2.65-1.35,18.093,18.093,0,0,0-7.31-1.29,193.829,193.829,0,0,1,7.38-21.72c5.72-13.92,15.54-32.46,29.9-41.69A88.151,88.151,0,0,1,148.9,78.07c16.31-.88,32.41,6.21,43.08,12.33,14.73,8.44,27.16,21.62,33.26,35.25,3.36,7.51,6.66,19.71,9.31,31.13q-.465.09-.93.21a17.684,17.684,0,0,0-5.54,2.49,15.41,15.41,0,0,0-1.29.96,14.589,14.589,0,0,0-1.26,1.1,17.732,17.732,0,0,0-1.29,1.31.035.035,0,0,0-.01.02c-.07-.22-.15-.44-.24-.67-.02-.05-.03-.1-.05-.15C222.95,159.53,221.68,156.6,220.1,153.41Zm3.01,10.8c-.01,0-.01,0-.01.01l-.06-.18A1.22,1.22,0,0,1,223.11,164.21ZM83.55,166.4c-.01.04-.02.07-.03.1a.145.145,0,0,0-.02-.07C83.52,166.42,83.53,166.41,83.55,166.4Zm28.84,12.59c8.36,5.39,10.23,15.18,9.29,21.92-.92,6.63-4.5,11.66-9.32,13.14-4.25,1.29-7.61,1.26-9.72-.09a5.341,5.341,0,0,1-2.36-3.5,1.5,1.5,0,0,0-1.34-1.31,1.482,1.482,0,0,0-1.57,1c-.28.81-6.91,19.63-26.54,17.04-19.92-2.64-29.23-7.77-32.11-17.73-2.8-9.65,4.63-24.43,4.71-24.58a1.492,1.492,0,0,0-.56-1.96,1.464,1.464,0,0,0-.78-.22,1.5,1.5,0,0,0-1.21.62c-.07.1-7.03,9.68-14.98,10.82a10.072,10.072,0,0,1-7.96-2.24c-8.48-6.61-12.17-21.78-3.32-34.76,6.28-9.21,24.95-12.35,31.46-8.66.15.09.3.18.44.27a11.439,11.439,0,0,1,.98.74,13.463,13.463,0,0,1,1.4,1.33c4.65,5.01,6.89,13.39,6.92,13.49a1.5,1.5,0,0,0,2.81.25,12.262,12.262,0,0,1,5.39-5.36,10.6,10.6,0,0,1,1.72-.66,10,10,0,0,1,1.63-.33,14.622,14.622,0,0,1,7.05,1.04,10.142,10.142,0,0,1,2.68,1.48,8.3,8.3,0,0,1,2.31,2.75c.13.23.25.48.36.73.09.21.18.43.25.65a11.828,11.828,0,0,1,.42,1.47,13.5,13.5,0,0,1,.24,1.57c.04.37.06.74.08,1.11a21.807,21.807,0,0,1-.11,2.92,26.656,26.656,0,0,1-.43,2.83,35.033,35.033,0,0,1-1.55,5.35,1.484,1.484,0,0,0,.43,1.73,1.518,1.518,0,0,0,1.79.09,43.471,43.471,0,0,1,10.48-4.78c.57-.18,1.17-.34,1.77-.49.57-.15,1.16-.28,1.75-.4C100.38,175.17,106.72,175.33,112.39,178.99Zm89.15-27.58c-8.46-11.63-24.43-24.94-43.88-27.42-14.33-1.83-27.42,1.89-38.9,11.03-11.08,8.82-18,20.56-21.84,28.86-1.74,3.74-3.12,6.97-4.23,9.77-.67.16-1.34.35-2.02.55a46.535,46.535,0,0,0-7.99,3.24,30.563,30.563,0,0,0,1.09-7.7v-.01a24.221,24.221,0,0,0,1.88-5.04v-.02a.142.142,0,0,0,.02-.06c.02-.1.08-.33.18-.68q.12-.465.27-.99c.09-.31.18-.63.28-.96.53-1.8,1.23-3.93,2.22-6.49.09-.23.18-.46.28-.71a114.77,114.77,0,0,1,5.35-11.93l.27-.54c10.74-21.57,24.91-31.41,37.49-35.64.41-.14.81-.27,1.22-.4.5-.16.99-.31,1.48-.44.31-.09.61-.17.91-.25l.24-.06c.46-.12.92-.23,1.38-.34q.78-.18,1.53-.33c1.61-.33,3.18-.57,4.68-.73.34-.05.66-.08.99-.11a52.52,52.52,0,0,1,5.96-.27h.32c.24-.01.48,0,.72.01.48.01.94.03,1.39.05.26.01.51.02.76.04s.5.03.74.05l.77.06c.5.05.97.1,1.42.15a60.509,60.509,0,0,1,27.64,10.44c.27.17.54.35.81.55a72.9,72.9,0,0,1,16.54,15.25c.3.39.6.77.88,1.15a1.267,1.267,0,0,1,.11.13,121.479,121.479,0,0,1,12.28,18.26c.02.04.05.08.07.12a93.084,93.084,0,0,1,6.07,12.64c.03.07.06.15.09.23.41,1.02.76,1.93,1.06,2.76v.01a.55.55,0,0,0-.07.09,38.342,38.342,0,0,0-4.76,10.33,33.3,33.3,0,0,0-2.4-3.47c-.01-.01-.02-.02-.02-.03A165.52,165.52,0,0,0,201.54,151.41Zm78.66,43.45c-2.93,1.77-5.64,2.21-8.06,1.3-5.62-2.13-8.34-10.7-8.37-10.78a1.5,1.5,0,0,0-2.91.69c.04.2,3.33,19.96-3.49,27.12-6.54,6.85-12.06,9.59-16.41,8.13-5.97-2-8.81-11.37-9.98-16.85-.21-.97-.36-1.82-.47-2.49-.16-.94-.23-1.51-.23-1.54a1.5,1.5,0,0,0-1.31-1.32,1.087,1.087,0,0,0-.18-.01,1.472,1.472,0,0,0-.97.36,1.385,1.385,0,0,0-.44.62c0,.01-.1.28-.29.75a47.209,47.209,0,0,1-5.89,10.37c-5.06,6.57-10.54,8.89-16.29,6.9-5.93-2.05-9.59-4.67-10.86-7.78-1.45-3.54.37-7.18,1.69-9.83.93-1.86,1.6-3.21.78-4.36a2.315,2.315,0,0,0-2.35-.83c-5.32.66-8.97-1.41-10.28-5.8-1.85-6.21,1.66-15.64,10.57-20.02a12.914,12.914,0,0,1,10.56-.88,17.864,17.864,0,0,1,7.22,5.56.01.01,0,0,0,.01.01,30.13,30.13,0,0,1,4.11,6.67,1.445,1.445,0,0,0,1.05.87,1.2,1.2,0,0,0,.5.04,1.456,1.456,0,0,0,.94-.48,1.44,1.44,0,0,0,.37-.75,39.448,39.448,0,0,1,3.84-10.7.539.539,0,0,1,.07-.13c.33-.6.68-1.2,1.06-1.79a1.739,1.739,0,0,0,.11-.18c.33-.49.66-.97,1.02-1.44.03-.04.06-.07.09-.11.32-.43.67-.85,1.03-1.25q.585-.66,1.23-1.26a16.287,16.287,0,0,1,1.26-1.08,14.644,14.644,0,0,1,5.43-2.69c.29-.07.58-.14.86-.2.51-.1,1.01-.19,1.49-.25.52-.07,1.03-.11,1.52-.13a16.016,16.016,0,0,1,13.69,6.7c.15.21.24.36.27.4a1.489,1.489,0,0,0,1.17.71,1.51,1.51,0,0,0,1.26-.53,22.834,22.834,0,0,1,1.92-1.92c.4-.37.87-.78,1.39-1.2v-.01a41.376,41.376,0,0,1,7.29-4.8c6.39-3.31,19.61-1.53,24.97,8.7C295.68,177.84,292.13,187.6,280.2,194.86Z"/><path d="M234.55,156.78q-.465.09-.93.21a17.684,17.684,0,0,0-5.54,2.49,15.41,15.41,0,0,0-1.29.96,14.589,14.589,0,0,0-1.26,1.1,17.732,17.732,0,0,0-1.29,1.31c-.08-.21-.16-.43-.25-.65-.02-.05-.03-.1-.05-.15a82.342,82.342,0,0,0-3.84-8.64c-.2-.41-.41-.84-.64-1.27a123.81,123.81,0,0,0-15.62-23.71.87.87,0,0,1-.09-.11,76.218,76.218,0,0,0-15.83-14.84,2.426,2.426,0,0,0-.2-.14,64.143,64.143,0,0,0-30.84-12.22c-.47-.06-.93-.11-1.39-.15-.17-.02-.33-.03-.5-.05a.17.17,0,0,1-.07-.01,56.2,56.2,0,0,0-32.4,6.57,60.305,60.305,0,0,0-7.25,4.64c-11.73,8.71-19.12,20.27-23.27,28.54-.06.11-.11.21-.16.31A116.685,116.685,0,0,0,85.59,155c-.1.26-.19.52-.29.78-.11.3-.22.6-.32.89-.13.36-.25.72-.37,1.06s-.22.68-.33.99-.2.63-.3.92a.169.169,0,0,0-.02.05c-.13.41-.25.8-.36,1.18-.15.49-.29.97-.41,1.42-.08.26-.15.51-.2.71l-.09.33c-.06.04-.13.07-.21.12-.05-.14-.1-.27-.16-.41a12.156,12.156,0,0,0-1.9-3.08,11.33,11.33,0,0,0-1.2-1.2,10.351,10.351,0,0,0-1.29-.97,13.454,13.454,0,0,0-2.65-1.35,18.093,18.093,0,0,0-7.31-1.29,193.829,193.829,0,0,1,7.38-21.72c5.72-13.92,15.54-32.46,29.9-41.69A88.151,88.151,0,0,1,148.9,78.07c16.31-.88,32.41,6.21,43.08,12.33,14.73,8.44,27.16,21.62,33.26,35.25C228.6,133.16,231.9,145.36,234.55,156.78Z" fill="#a18aba"/><path d="M280.2,194.86c-2.93,1.77-5.64,2.21-8.06,1.3-5.62-2.13-8.34-10.7-8.37-10.78a1.5,1.5,0,0,0-2.91.69c.04.2,3.33,19.96-3.49,27.12-6.54,6.85-12.06,9.59-16.41,8.13-5.97-2-8.81-11.37-9.98-16.85-.21-.97-.36-1.82-.47-2.49-.16-.94-.23-1.51-.23-1.54a1.5,1.5,0,0,0-1.31-1.32,1.087,1.087,0,0,0-.18-.01,1.472,1.472,0,0,0-.97.36,1.385,1.385,0,0,0-.44.62c0,.01-.1.28-.29.75a47.209,47.209,0,0,1-5.89,10.37c-5.06,6.57-10.54,8.89-16.29,6.9-5.93-2.05-9.59-4.67-10.86-7.78-1.45-3.54.37-7.18,1.69-9.83.93-1.86,1.6-3.21.78-4.36a2.315,2.315,0,0,0-2.35-.83c-5.32.66-8.97-1.41-10.28-5.8-1.85-6.21,1.66-15.64,10.57-20.02a12.914,12.914,0,0,1,10.56-.88,17.864,17.864,0,0,1,7.22,5.56.01.01,0,0,0,.01.01,30.13,30.13,0,0,1,4.11,6.67,1.445,1.445,0,0,0,1.05.87,1.2,1.2,0,0,0,.5.04,1.456,1.456,0,0,0,.94-.48,1.44,1.44,0,0,0,.37-.75,39.448,39.448,0,0,1,3.84-10.7c.03.2.05.31.05.32a.09.09,0,0,0,.01.05,1.207,1.207,0,0,1,.01-.5c.33-.6.68-1.2,1.06-1.79a1.739,1.739,0,0,0,.11-.18c.33-.49.66-.97,1.02-1.44.03-.04.06-.07.09-.11.32-.43.67-.85,1.03-1.25q.585-.66,1.23-1.26a16.287,16.287,0,0,1,1.26-1.08,14.644,14.644,0,0,1,5.43-2.69c.29-.07.58-.14.86-.2.51-.1,1.01-.19,1.49-.25.52-.07,1.03-.11,1.52-.13a16.016,16.016,0,0,1,13.69,6.7c.15.21.24.36.27.4a1.489,1.489,0,0,0,1.17.71,1.51,1.51,0,0,0,1.26-.53,22.834,22.834,0,0,1,1.92-1.92c.4-.37.87-.78,1.39-1.2v-.01a41.376,41.376,0,0,1,7.29-4.8c6.39-3.31,19.61-1.53,24.97,8.7C295.68,177.84,292.13,187.6,280.2,194.86Z" fill="#fff"/><path d="M223.12,170.2a.09.09,0,0,1-.01-.05c0-.01-.02-.12-.05-.32a.539.539,0,0,1,.07-.13A1.207,1.207,0,0,0,223.12,170.2Z" fill="#fff"/><path d="M121.68,200.91c-.92,6.63-4.5,11.66-9.32,13.14-4.25,1.29-7.61,1.26-9.72-.09a5.341,5.341,0,0,1-2.36-3.5,1.5,1.5,0,0,0-1.34-1.31,1.482,1.482,0,0,0-1.57,1c-.28.81-6.91,19.63-26.54,17.04-19.92-2.64-29.23-7.77-32.11-17.73-2.8-9.65,4.63-24.43,4.71-24.58a1.492,1.492,0,0,0-.56-1.96,1.464,1.464,0,0,0-.78-.22,1.5,1.5,0,0,0-1.21.62c-.07.1-7.03,9.68-14.98,10.82a10.072,10.072,0,0,1-7.96-2.24c-8.48-6.61-12.17-21.78-3.32-34.76,6.28-9.21,24.95-12.35,31.46-8.66.15.09.3.18.44.27a11.439,11.439,0,0,1,.98.74,13.463,13.463,0,0,1,1.4,1.33c4.65,5.01,6.89,13.39,6.92,13.49a1.5,1.5,0,0,0,2.81.25,12.262,12.262,0,0,1,5.39-5.36,10.6,10.6,0,0,1,1.72-.66,10,10,0,0,1,1.63-.33,14.622,14.622,0,0,1,7.05,1.04,10.142,10.142,0,0,1,2.68,1.48,8.3,8.3,0,0,1,2.31,2.75c.13.23.25.48.36.73.09.21.18.43.25.65a11.828,11.828,0,0,1,.42,1.47,13.5,13.5,0,0,1,.24,1.57c.04.37.06.74.08,1.11a21.807,21.807,0,0,1-.11,2.92,26.656,26.656,0,0,1-.43,2.83,35.033,35.033,0,0,1-1.55,5.35,1.484,1.484,0,0,0,.43,1.73,1.518,1.518,0,0,0,1.79.09,43.471,43.471,0,0,1,10.48-4.78c.57-.18,1.17-.34,1.77-.49.57-.15,1.16-.28,1.75-.4,5.49-1.09,11.83-.93,17.5,2.73C120.75,184.38,122.62,194.17,121.68,200.91Z" fill="#fff"/></svg>